<svg width="170" height="99" viewBox="0 0 170 99" fill="none" xmlns="http://www.w3.org/2000/svg">
<path d="M114.938 28.7028C114.704 25.9259 113.366 23.3497 111.172 21.4487C109.496 19.9962 107.434 19.0412 105.22 18.6654C104.416 8.2473 95.0781 0 83.7143 0C83.701 0 83.6883 0.00164062 83.6751 0.00185937C83.649 0.00164062 83.6232 0 83.5971 0C81.4933 0 79.5007 0.750202 77.9863 2.11257C77.0543 2.95104 77.0269 4.33584 77.9252 5.20569C78.8237 6.07555 80.3074 6.10104 81.2392 5.26268C81.8756 4.69021 82.7129 4.37499 83.5971 4.37499C85.4709 4.37499 86.9955 5.79785 86.9955 7.54686C86.9955 9.29587 85.4709 10.7187 83.5971 10.7187C83.5563 10.7187 83.5166 10.7224 83.4764 10.7244C80.9961 10.7116 79.4839 10.3138 78.0228 9.92806C76.6444 9.56395 75.2187 9.18748 73.2846 9.18748C73.2055 9.18748 73.1273 9.19142 73.0502 9.19853C72.9731 9.19142 72.895 9.18748 72.8159 9.18748C66.7467 9.18748 61.8092 13.7959 61.8092 19.4604C61.8092 20.8293 62.101 22.1522 62.6373 23.3677C58.365 23.8876 55.0543 27.304 55.0543 31.4309C55.0543 35.9966 59.2322 38.9563 63.3785 39.5349C63.4046 39.5395 63.4395 39.5457 63.4811 39.553C63.4829 39.5628 63.4835 39.5726 63.4856 39.5824L66.6044 54.2386C66.8222 55.2625 67.7848 56 68.9032 56C68.9049 56 68.9032 56 68.9049 56H101.461H101.462C102.585 56 103.55 55.2569 103.763 54.2282L106.757 39.7908C106.802 39.5744 106.81 39.3596 106.788 39.1511C107.308 39.0159 107.82 38.875 108.323 38.7276C109.558 38.3656 110.244 37.1378 109.856 35.9852C109.468 34.8325 108.153 34.1919 106.918 34.5537C100.496 36.4364 93.0686 37.0338 86.2248 37.0335C74.4301 37.0333 64.3729 35.2585 64.215 35.2301C64.178 35.2234 64.1406 35.2175 64.1031 35.2124C61.9358 34.9214 59.7417 33.5291 59.7417 31.431C59.7417 29.3583 61.5485 27.6719 63.7694 27.6719C65.339 27.6719 66.5679 28.1909 68.4284 28.9764C72.1497 30.5475 77.773 32.9218 91.0971 32.9218C92.3915 32.9218 93.4408 31.9425 93.4408 30.7343C93.4408 29.5262 92.3915 28.5468 91.0971 28.5468C80.0938 28.5468 75.0356 26.9053 71.5472 25.485C71.319 25.2895 71.0459 25.1328 70.7347 25.0316C68.1999 24.2069 66.4967 21.968 66.4967 19.4604C66.4967 16.2083 69.3314 13.5625 72.8159 13.5625C72.895 13.5625 72.9731 13.5585 73.0502 13.5514C73.1273 13.5585 73.2055 13.5625 73.2846 13.5625C74.5683 13.5625 75.5297 13.8163 76.7468 14.1378C78.3712 14.5668 80.3931 15.1006 83.5971 15.1006C83.6817 15.1006 83.7651 15.0959 83.8474 15.0878C88.1904 14.9637 91.683 11.6299 91.683 7.54686C91.683 7.07939 91.6349 6.62232 91.5473 6.17814C96.4445 8.58373 99.9282 13.1699 100.505 18.5445C98.3789 18.6594 96.464 18.9219 94.5971 19.1779C90.5791 19.7288 86.4244 20.2984 79.8409 19.3832C78.5603 19.2047 77.368 20.0296 77.1773 21.2245C76.9867 22.4194 77.87 23.5324 79.1503 23.7104C81.9539 24.1001 84.3456 24.2476 86.4766 24.2476C89.8708 24.2476 92.6027 23.8731 95.2782 23.5064C97.7057 23.1737 99.9985 22.8592 102.699 22.8592C102.763 22.8592 102.827 22.855 102.89 22.8503C102.953 22.8551 103.016 22.8592 103.081 22.8592C106.816 22.8592 109.972 25.5772 110.265 29.047C110.362 30.1928 111.388 31.0624 112.599 31.0624C112.661 31.0624 112.724 31.0601 112.786 31.0556C114.077 30.9606 115.04 29.9072 114.938 28.7028ZM97.2365 40.8586C98.8468 40.6816 100.401 40.4629 101.898 40.2026L99.5288 51.6249H95.9445L97.2365 40.8586ZM87.5815 41.414C89.2576 41.3955 90.8887 41.3418 92.4725 41.2521L91.2277 51.6249H87.5815V41.414ZM78.6993 41.2025C80.1252 41.2822 81.5226 41.3394 82.894 41.3757V51.6249H79.4821L78.2282 41.1752C78.3845 41.1845 78.5414 41.1936 78.6993 41.2025ZM73.4684 40.8175L74.7653 51.6249H70.8273L68.4116 40.2718C69.8559 40.4528 71.5618 40.6441 73.4684 40.8175Z" fill="black"/>
<path d="M101.237 27.705L99.2444 28.0332C97.9696 28.2432 97.1186 29.3778 97.3436 30.5675C97.5442 31.6287 98.5331 32.3752 99.6489 32.3752C99.784 32.3752 99.9213 32.3642 100.059 32.3415L102.051 32.0134C103.326 31.8034 104.177 30.6688 103.952 29.4791C103.727 28.2893 102.511 27.4956 101.237 27.705Z" fill="black"/>
<path d="M32.7542 85.94C32.7542 86.588 32.8022 87.056 32.8982 87.344C33.0182 87.632 33.2342 87.824 33.5462 87.92C33.8582 88.016 34.3622 88.064 35.0582 88.064H37.2182C38.9222 88.064 40.3622 87.596 41.5382 86.66C42.7142 85.7 43.4942 84.416 43.8782 82.808C43.9022 82.736 43.9742 82.712 44.0942 82.736C44.2142 82.736 44.2742 82.772 44.2742 82.844C44.0582 85.1 43.9502 86.972 43.9502 88.46C43.9502 88.652 43.9142 88.796 43.8422 88.892C43.7702 88.964 43.6262 89 43.4102 89H26.5622C26.5142 89 26.4902 88.928 26.4902 88.784C26.4902 88.64 26.5142 88.568 26.5622 88.568C27.3782 88.568 27.9662 88.508 28.3262 88.388C28.7102 88.268 28.9622 88.04 29.0822 87.704C29.2262 87.344 29.2982 86.804 29.2982 86.084V69.416C29.2982 68.696 29.2262 68.168 29.0822 67.832C28.9622 67.496 28.7102 67.268 28.3262 67.148C27.9422 67.004 27.3542 66.932 26.5622 66.932C26.5142 66.932 26.4902 66.86 26.4902 66.716C26.4902 66.572 26.5142 66.5 26.5622 66.5L28.3982 66.536C29.4542 66.584 30.3182 66.608 30.9902 66.608C31.7102 66.608 32.5982 66.584 33.6542 66.536L35.4542 66.5C35.5262 66.5 35.5622 66.572 35.5622 66.716C35.5622 66.86 35.5262 66.932 35.4542 66.932C34.6622 66.932 34.0742 67.004 33.6902 67.148C33.3302 67.268 33.0782 67.508 32.9342 67.868C32.8142 68.204 32.7542 68.732 32.7542 69.452V85.94ZM59.9347 87.056C60.0307 87.056 60.0907 87.116 60.1147 87.236C60.1387 87.332 60.1027 87.404 60.0067 87.452L56.2987 89.216C56.2027 89.264 56.0947 89.288 55.9747 89.288C55.6147 89.288 55.2667 89.084 54.9307 88.676C54.6187 88.244 54.4147 87.68 54.3187 86.984L52.6627 88.136C52.0867 88.544 51.5587 88.832 51.0787 89C50.6227 89.168 50.1067 89.252 49.5307 89.252C48.5467 89.252 47.7907 89.024 47.2627 88.568C46.7587 88.088 46.5067 87.464 46.5067 86.696C46.5067 86.048 46.6747 85.52 47.0107 85.112C47.3707 84.704 47.8147 84.38 48.3427 84.14C48.8947 83.876 49.6987 83.552 50.7547 83.168L54.2467 81.872V79.712C54.2467 78.224 54.0907 77.144 53.7787 76.472C53.4907 75.776 53.0227 75.428 52.3747 75.428C51.5827 75.428 51.0067 75.728 50.6467 76.328C50.3107 76.904 50.1067 77.552 50.0347 78.272C49.8907 79.496 49.2787 80.108 48.1987 80.108C47.6707 80.108 47.2747 79.988 47.0107 79.748C46.7707 79.508 46.6507 79.208 46.6507 78.848C46.6507 78.176 47.0467 77.528 47.8387 76.904C48.6547 76.256 49.6267 75.74 50.7547 75.356C51.9067 74.948 52.9147 74.744 53.7787 74.744C54.8107 74.744 55.6267 75.068 56.2267 75.716C56.8507 76.364 57.1627 77.336 57.1627 78.632V85.112C57.1627 85.856 57.2827 86.42 57.5227 86.804C57.7627 87.188 58.1107 87.38 58.5667 87.38C58.9267 87.38 59.3587 87.272 59.8627 87.056H59.9347ZM54.2467 86.408V86.048V82.484L52.0867 83.384C51.4627 83.624 50.9467 83.912 50.5387 84.248C50.1547 84.56 49.9627 85.016 49.9627 85.616C49.9627 86.192 50.1427 86.66 50.5027 87.02C50.8867 87.356 51.3427 87.524 51.8707 87.524C52.3027 87.524 52.7587 87.38 53.2387 87.092L54.2467 86.408ZM76.0374 67.256C74.5734 67.256 73.3614 67.712 72.4014 68.624C71.4654 69.512 70.7454 70.868 70.2414 72.692C70.2414 72.74 70.1694 72.764 70.0254 72.764C69.9054 72.764 69.8454 72.728 69.8454 72.656C69.9414 71.72 70.0494 70.52 70.1694 69.056C70.2894 67.568 70.3494 66.452 70.3494 65.708C70.3494 65.588 70.4094 65.528 70.5294 65.528C70.6734 65.528 70.7454 65.588 70.7454 65.708C70.7454 66.236 71.4174 66.5 72.7614 66.5C74.8254 66.572 77.2374 66.608 79.9974 66.608C81.4134 66.608 82.9134 66.584 84.4974 66.536L86.9454 66.5C87.8574 66.5 88.5174 66.44 88.9254 66.32C89.3574 66.2 89.6334 65.96 89.7534 65.6C89.7774 65.504 89.8494 65.456 89.9694 65.456C90.0894 65.456 90.1494 65.504 90.1494 65.6C90.0774 66.344 90.0054 67.472 89.9334 68.984C89.8614 70.496 89.8254 71.72 89.8254 72.656C89.8254 72.728 89.7534 72.764 89.6094 72.764C89.4894 72.764 89.4174 72.728 89.3934 72.656C89.1534 70.808 88.5894 69.452 87.7014 68.588C86.8134 67.7 85.6134 67.256 84.1014 67.256C83.4294 67.256 82.9254 67.316 82.5894 67.436C82.2774 67.556 82.0614 67.772 81.9414 68.084C81.8454 68.372 81.7974 68.84 81.7974 69.488V86.084C81.7974 86.828 81.8694 87.368 82.0134 87.704C82.1574 88.04 82.4454 88.268 82.8774 88.388C83.3094 88.508 83.9934 88.568 84.9294 88.568C85.0014 88.568 85.0374 88.64 85.0374 88.784C85.0374 88.928 85.0014 89 84.9294 89C84.0894 89 83.4294 88.988 82.9494 88.964L79.9974 88.928L77.1894 88.964C76.6854 88.988 75.9894 89 75.1014 89C75.0534 89 75.0294 88.928 75.0294 88.784C75.0294 88.64 75.0534 88.568 75.1014 88.568C76.0374 88.568 76.7214 88.508 77.1534 88.388C77.6094 88.268 77.9094 88.04 78.0534 87.704C78.2214 87.344 78.3054 86.804 78.3054 86.084V69.416C78.3054 68.792 78.2454 68.336 78.1254 68.048C78.0054 67.76 77.7894 67.556 77.4774 67.436C77.1654 67.316 76.6854 67.256 76.0374 67.256ZM103.986 87.056C104.082 87.056 104.142 87.116 104.166 87.236C104.19 87.332 104.154 87.404 104.058 87.452L100.35 89.216C100.254 89.264 100.146 89.288 100.026 89.288C99.6655 89.288 99.3175 89.084 98.9815 88.676C98.6695 88.244 98.4655 87.68 98.3695 86.984L96.7135 88.136C96.1375 88.544 95.6095 88.832 95.1295 89C94.6735 89.168 94.1575 89.252 93.5815 89.252C92.5975 89.252 91.8415 89.024 91.3135 88.568C90.8095 88.088 90.5575 87.464 90.5575 86.696C90.5575 86.048 90.7255 85.52 91.0615 85.112C91.4215 84.704 91.8655 84.38 92.3935 84.14C92.9455 83.876 93.7495 83.552 94.8055 83.168L98.2975 81.872V79.712C98.2975 78.224 98.1415 77.144 97.8295 76.472C97.5415 75.776 97.0735 75.428 96.4255 75.428C95.6335 75.428 95.0575 75.728 94.6975 76.328C94.3615 76.904 94.1575 77.552 94.0855 78.272C93.9415 79.496 93.3295 80.108 92.2495 80.108C91.7215 80.108 91.3255 79.988 91.0615 79.748C90.8215 79.508 90.7015 79.208 90.7015 78.848C90.7015 78.176 91.0975 77.528 91.8895 76.904C92.7055 76.256 93.6775 75.74 94.8055 75.356C95.9575 74.948 96.9655 74.744 97.8295 74.744C98.8615 74.744 99.6775 75.068 100.278 75.716C100.902 76.364 101.214 77.336 101.214 78.632V85.112C101.214 85.856 101.334 86.42 101.574 86.804C101.814 87.188 102.162 87.38 102.618 87.38C102.978 87.38 103.41 87.272 103.914 87.056H103.986ZM98.2975 86.408V86.048V82.484L96.1375 83.384C95.5135 83.624 94.9975 83.912 94.5895 84.248C94.2055 84.56 94.0135 85.016 94.0135 85.616C94.0135 86.192 94.1935 86.66 94.5535 87.02C94.9375 87.356 95.3935 87.524 95.9215 87.524C96.3535 87.524 96.8095 87.38 97.2895 87.092L98.2975 86.408ZM114.531 74.744C115.083 74.744 115.611 74.924 116.115 75.284C116.619 75.644 116.871 76.076 116.871 76.58C116.871 77.036 116.727 77.408 116.439 77.696C116.175 77.984 115.803 78.128 115.323 78.128C115.011 78.128 114.747 78.068 114.531 77.948C114.339 77.804 114.135 77.612 113.919 77.372C113.703 77.156 113.511 77 113.343 76.904C113.175 76.784 112.971 76.724 112.731 76.724C112.467 76.724 112.179 76.832 111.867 77.048C111.579 77.24 111.123 77.66 110.499 78.308V86.084C110.499 86.756 110.595 87.272 110.787 87.632C110.979 87.968 111.303 88.208 111.759 88.352C112.215 88.496 112.887 88.568 113.775 88.568C113.871 88.568 113.919 88.64 113.919 88.784C113.919 88.928 113.871 89 113.775 89C112.983 89 112.347 88.988 111.867 88.964L109.023 88.928L106.935 88.964C106.599 88.988 106.131 89 105.531 89C105.459 89 105.423 88.928 105.423 88.784C105.423 88.64 105.459 88.568 105.531 88.568C106.347 88.568 106.887 88.4 107.151 88.064C107.415 87.728 107.547 87.068 107.547 86.084V79.208C107.547 78.44 107.451 77.876 107.259 77.516C107.091 77.156 106.803 76.976 106.395 76.976C106.035 76.976 105.435 77.156 104.595 77.516H104.559C104.463 77.516 104.391 77.456 104.343 77.336C104.295 77.216 104.307 77.144 104.379 77.12L109.095 74.816C109.239 74.768 109.323 74.744 109.347 74.744C109.587 74.744 109.827 75.008 110.067 75.536C110.307 76.04 110.451 76.712 110.499 77.552C111.435 76.496 112.215 75.764 112.839 75.356C113.463 74.948 114.027 74.744 114.531 74.744ZM129.04 86.696C129.112 86.696 129.172 86.744 129.22 86.84C129.292 86.936 129.292 87.008 129.22 87.056C128.332 87.896 127.492 88.508 126.7 88.892C125.908 89.252 125.068 89.432 124.18 89.432C123.148 89.432 122.272 89.192 121.552 88.712C120.856 88.208 120.508 87.38 120.508 86.228V78.092C120.508 77.3 120.376 76.772 120.112 76.508C119.872 76.244 119.392 76.112 118.672 76.112C118.648 76.112 118.612 76.088 118.564 76.04C118.54 75.968 118.528 75.896 118.528 75.824C118.528 75.752 118.54 75.692 118.564 75.644C118.612 75.572 118.648 75.536 118.672 75.536C120.928 75.44 122.344 74.468 122.92 72.62C122.968 72.524 123.064 72.476 123.208 72.476C123.376 72.476 123.46 72.524 123.46 72.62V75.464C124.588 75.44 126.184 75.32 128.248 75.104C128.296 75.104 128.344 75.2 128.392 75.392C128.464 75.56 128.5 75.752 128.5 75.968C128.5 76.184 128.452 76.4 128.356 76.616C128.284 76.832 128.2 76.928 128.104 76.904C126.76 76.592 125.212 76.4 123.46 76.328V85.04C123.46 85.976 123.688 86.672 124.144 87.128C124.624 87.56 125.284 87.776 126.124 87.776C127.132 87.776 128.08 87.428 128.968 86.732L129.04 86.696ZM143.292 86.732C143.34 86.732 143.388 86.78 143.436 86.876C143.508 86.972 143.52 87.044 143.472 87.092C142.584 87.908 141.696 88.508 140.808 88.892C139.92 89.252 138.96 89.432 137.928 89.432C136.464 89.432 135.192 89.108 134.112 88.46C133.056 87.812 132.24 86.96 131.664 85.904C131.112 84.848 130.836 83.708 130.836 82.484C130.836 81.068 131.184 79.772 131.88 78.596C132.576 77.42 133.524 76.496 134.724 75.824C135.948 75.128 137.304 74.78 138.792 74.78C140.232 74.78 141.348 75.128 142.14 75.824C142.932 76.52 143.328 77.552 143.328 78.92C143.328 79.616 143.184 79.964 142.896 79.964L134.112 80C134.088 80.216 134.076 80.54 134.076 80.972C134.076 83.084 134.556 84.764 135.516 86.012C136.5 87.236 137.892 87.848 139.692 87.848C140.364 87.848 140.928 87.776 141.384 87.632C141.84 87.464 142.452 87.176 143.22 86.768L143.292 86.732ZM137.496 75.5C136.608 75.5 135.876 75.848 135.3 76.544C134.748 77.216 134.376 78.152 134.184 79.352L139.944 79.244C139.896 76.748 139.08 75.5 137.496 75.5Z" fill="black"/>
</svg>
