<svg width="42" height="42" viewBox="0 0 42 42" fill="none" xmlns="http://www.w3.org/2000/svg">
<path d="M21 30.7891C20.5469 30.7891 20.1797 31.1563 20.1797 31.6094C20.1797 31.6104 20.1797 31.6116 20.1797 31.6127C20.1797 31.6137 20.1797 31.6149 20.1797 31.6159V31.6225C20.1797 32.0756 20.5469 32.4428 21 32.4428C21.4531 32.4428 21.8203 32.0756 21.8203 31.6225C21.8203 31.6214 21.8203 31.6204 21.8203 31.6192C21.8203 31.6181 21.8203 31.6171 21.8203 31.6159C21.8203 31.6148 21.8203 31.6137 21.8203 31.6127C21.8203 31.6116 21.8203 31.6104 21.8203 31.6094C21.8203 31.1563 21.4531 30.7891 21 30.7891Z" fill="black"/>
<path d="M33.9609 0H8.03906C3.60626 0 0 3.60626 0 8.03906V33.9609C0 38.3937 3.60626 42 8.03906 42H21C21.4531 42 21.8203 41.6327 21.8203 41.1797V34.8223C21.8203 34.3692 21.4531 34.002 21 34.002C20.5469 34.002 20.1797 34.3692 20.1797 34.8223V40.3594H8.03906C4.51098 40.3594 1.64062 37.489 1.64062 33.9609V8.03906C1.64062 4.51098 4.51098 1.64062 8.03906 1.64062H33.9609C37.489 1.64062 40.3594 4.51098 40.3594 8.03906V33.9609C40.3594 37.489 37.489 40.3594 33.9609 40.3594H28.7109V25.8809H33.4672C33.8885 25.8809 34.2412 25.5618 34.2834 25.1427L34.8733 19.2812C34.8965 19.0504 34.821 18.8208 34.6655 18.6488C34.51 18.4769 34.2889 18.3788 34.0571 18.3788H28.7109V15.3009C28.7109 14.7438 28.8884 14.5367 29.3656 14.5367H34.0202C34.4733 14.5367 34.8406 14.1694 34.8406 13.7164V8.00207C34.8406 7.54901 34.4733 7.18175 34.0202 7.18175H27.9075C24.4439 7.18175 22.6071 8.70311 21.6761 9.97935C20.374 11.7642 20.1796 13.8721 20.1796 14.9696V18.4155H16.1601C15.707 18.4155 15.3398 18.7828 15.3398 19.2358V25.0605C15.3398 25.5136 15.707 25.8809 16.1601 25.8809H20.1796V28.2188C20.1796 28.6718 20.5469 29.0391 20.9999 29.0391C21.453 29.0391 21.8202 28.6718 21.8202 28.2188V25.0605C21.8202 24.6075 21.453 24.2402 20.9999 24.2402H16.9804V20.0561H20.9999C21.453 20.0561 21.8202 19.6888 21.8202 19.2358V14.9696C21.8202 13.1212 22.4134 8.8223 27.9075 8.8223H33.1999V12.896H29.3656C28.3068 12.896 27.0703 13.5258 27.0703 15.3008V19.199C27.0703 19.6521 27.4376 20.0193 27.8906 20.0193H33.1501L32.7253 24.2402H27.8906C27.4376 24.2402 27.0703 24.6075 27.0703 25.0605V41.1797C27.0703 41.6327 27.4376 42 27.8906 42H33.9609C38.3937 42 42 38.3937 42 33.9609V8.03906C42 3.60626 38.3937 0 33.9609 0Z" fill="black"/>
<path d="M4.75781 8.4082C4.30475 8.4082 3.9375 8.77546 3.9375 9.22852V16.0781C3.9375 16.5312 4.30475 16.8984 4.75781 16.8984C5.21087 16.8984 5.57812 16.5312 5.57812 16.0781V9.22852C5.57812 8.77546 5.21087 8.4082 4.75781 8.4082Z" fill="black"/>
<path d="M4.75781 18.8165C4.30475 18.8165 3.9375 19.1837 3.9375 19.6368V19.6465C3.9375 20.0995 4.30475 20.4668 4.75781 20.4668C5.21087 20.4668 5.57812 20.0995 5.57812 19.6465V19.6368C5.57812 19.1837 5.21087 18.8165 4.75781 18.8165Z" fill="black"/>
</svg>
