<svg width="42" height="42" viewBox="0 0 42 42" fill="none" xmlns="http://www.w3.org/2000/svg">
<path d="M29.6953 0H12.3047C5.51988 0 0 5.51989 0 12.3047V29.6953C0 36.4801 5.51988 42 12.3047 42H29.6953C36.4801 42 42 36.4801 42 29.6953V12.3047C42 5.51989 36.4801 0 29.6953 0ZM40.3594 29.6953C40.3594 35.5754 35.5755 40.3593 29.6953 40.3593H12.3047C6.42452 40.3593 1.64062 35.5754 1.64062 29.6953V12.3047C1.64062 6.42452 6.42452 1.64062 12.3047 1.64062H29.6953C35.5755 1.64062 40.3594 6.42452 40.3594 12.3047V29.6953Z" fill="black"/>
<path d="M29.6953 3.60938H12.3047C7.51004 3.60938 3.60938 7.51004 3.60938 12.3047V29.6953C3.60938 34.49 7.51004 38.3907 12.3047 38.3907H17.3086C17.7617 38.3907 18.1289 38.0234 18.1289 37.5703C18.1289 37.1172 17.7617 36.75 17.3086 36.75H12.3047C8.41477 36.75 5.25 33.5852 5.25 29.6953V12.3047C5.25 8.41476 8.41477 5.25 12.3047 5.25H29.6953C33.5852 5.25 36.75 8.41476 36.75 12.3047V29.6953C36.75 33.5852 33.5852 36.75 29.6953 36.75H24.7461C24.2931 36.75 23.9258 37.1172 23.9258 37.5703C23.9258 38.0234 24.2931 38.3907 24.7461 38.3907H29.6953C34.49 38.3907 38.3906 34.49 38.3906 29.6953V12.3047C38.3906 7.51004 34.49 3.60938 29.6953 3.60938Z" fill="black"/>
<path d="M21.58 36.9903C21.4274 36.8378 21.2157 36.75 21 36.75C20.7843 36.75 20.5726 36.8378 20.42 36.9903C20.2675 37.143 20.1797 37.3546 20.1797 37.5703C20.1797 37.7861 20.2675 37.9977 20.42 38.1502C20.5726 38.3029 20.7843 38.3907 21 38.3907C21.2157 38.3907 21.4274 38.3029 21.58 38.1502C21.7325 37.9977 21.8203 37.7861 21.8203 37.5703C21.8203 37.3546 21.7325 37.143 21.58 36.9903Z" fill="black"/>
<path d="M14.4235 12.7732C14.1137 12.4425 13.5947 12.4257 13.264 12.7352L13.2277 12.7695C12.8982 13.0804 12.8831 13.5996 13.1941 13.9291C13.3554 14.1001 13.5729 14.1864 13.7908 14.1864C13.9928 14.1864 14.1952 14.1122 14.3537 13.9628L14.3857 13.9327C14.7163 13.6229 14.7333 13.1037 14.4235 12.7732Z" fill="black"/>
<path d="M21 9.67969C19.1983 9.67969 17.4051 10.1137 15.8142 10.9349C15.4117 11.1426 15.2538 11.6375 15.4616 12.0401C15.6694 12.4426 16.1643 12.6004 16.5668 12.3927C17.9453 11.6811 19.4369 11.3203 21 11.3203C26.3374 11.3203 30.6797 15.6626 30.6797 21C30.6797 26.3374 26.3374 30.6797 21 30.6797C15.6626 30.6797 11.3203 26.3374 11.3203 21C11.3203 19.325 11.7547 17.6747 12.5765 16.2276C12.8002 15.8337 12.6622 15.333 12.2682 15.1091C11.8742 14.8855 11.3736 15.0234 11.1498 15.4175C10.188 17.1111 9.67969 19.0415 9.67969 21C9.67969 27.242 14.758 32.3203 21 32.3203C27.242 32.3203 32.3203 27.242 32.3203 21C32.3203 14.758 27.242 9.67969 21 9.67969Z" fill="black"/>
<path d="M21 13.6172C16.9291 13.6172 13.6172 16.929 13.6172 21C13.6172 25.0709 16.9291 28.3827 21 28.3827C25.0709 28.3827 28.3828 25.0709 28.3828 21C28.3828 16.929 25.0709 13.6172 21 13.6172ZM21 26.7422C17.8338 26.7422 15.2578 24.1663 15.2578 21C15.2578 17.8337 17.8338 15.2577 21 15.2577C24.1662 15.2577 26.7422 17.8337 26.7422 21C26.7422 24.1663 24.1662 26.7422 21 26.7422Z" fill="black"/>
<path d="M31.7666 7.11621C30.0478 7.11621 28.6494 8.5146 28.6494 10.2334C28.6494 11.9522 30.0478 13.3506 31.7666 13.3506C33.4854 13.3506 34.8838 11.9522 34.8838 10.2334C34.8838 8.5146 33.4854 7.11621 31.7666 7.11621ZM31.7666 11.71C30.9524 11.71 30.29 11.0475 30.29 10.2334C30.29 9.41923 30.9524 8.75683 31.7666 8.75683C32.5808 8.75683 33.2432 9.41923 33.2432 10.2334C33.2432 11.0475 32.5808 11.71 31.7666 11.71Z" fill="black"/>
</svg>
