<svg width="42" height="41" viewBox="0 0 42 41" fill="none" xmlns="http://www.w3.org/2000/svg">
<path d="M29.6953 0H12.3047C5.51988 0 0 5.38846 0 12.0117V28.9883C0 35.6115 5.51988 41 12.3047 41H29.6953C36.4801 41 42 35.6115 42 28.9883V12.0117C42 5.38846 36.4801 0 29.6953 0ZM40.3594 28.9883C40.3594 34.7284 35.5755 39.3984 29.6953 39.3984H12.3047C6.42452 39.3984 1.64062 34.7284 1.64062 28.9883V12.0117C1.64062 6.27156 6.42452 1.60156 12.3047 1.60156H29.6953C35.5755 1.60156 40.3594 6.27156 40.3594 12.0117V28.9883Z" fill="black"/>
<path d="M29.6953 3.52344H12.3047C7.51004 3.52344 3.60938 7.33123 3.60938 12.0117V28.9883C3.60938 33.6688 7.51004 37.4766 12.3047 37.4766H17.3086C17.7617 37.4766 18.1289 37.1181 18.1289 36.6758C18.1289 36.2335 17.7617 35.875 17.3086 35.875H12.3047C8.41477 35.875 5.25 32.7856 5.25 28.9883V12.0117C5.25 8.21441 8.41477 5.125 12.3047 5.125H29.6953C33.5852 5.125 36.75 8.21441 36.75 12.0117V28.9883C36.75 32.7856 33.5852 35.875 29.6953 35.875H24.7461C24.2931 35.875 23.9258 36.2335 23.9258 36.6758C23.9258 37.1181 24.2931 37.4766 24.7461 37.4766H29.6953C34.49 37.4766 38.3906 33.6688 38.3906 28.9883V12.0117C38.3906 7.33123 34.49 3.52344 29.6953 3.52344Z" fill="black"/>
<path d="M21.58 36.1096C21.4274 35.9607 21.2157 35.875 21 35.875C20.7843 35.875 20.5726 35.9607 20.42 36.1096C20.2675 36.2586 20.1797 36.4652 20.1797 36.6758C20.1797 36.8864 20.2675 37.093 20.42 37.2419C20.5726 37.3909 20.7843 37.4766 21 37.4766C21.2157 37.4766 21.4274 37.3909 21.58 37.2419C21.7325 37.093 21.8203 36.8864 21.8203 36.6758C21.8203 36.4652 21.7325 36.2586 21.58 36.1096Z" fill="black"/>
<path d="M14.4235 12.469C14.1137 12.1462 13.5947 12.1298 13.264 12.432L13.2277 12.4654C12.8982 12.7689 12.8831 13.2758 13.1941 13.5974C13.3554 13.7644 13.5729 13.8486 13.7908 13.8486C13.9928 13.8486 14.1952 13.7762 14.3537 13.6303L14.3857 13.6009C14.7163 13.2985 14.7333 12.7917 14.4235 12.469Z" fill="black"/>
<path d="M21 9.44922C19.1983 9.44922 17.4051 9.87291 15.8142 10.6745C15.4117 10.8773 15.2538 11.3604 15.4616 11.7534C15.6694 12.1463 16.1643 12.3004 16.5668 12.0976C17.9453 11.403 19.4369 11.0508 21 11.0508C26.3374 11.0508 30.6797 15.2897 30.6797 20.5C30.6797 25.7103 26.3374 29.9492 21 29.9492C15.6626 29.9492 11.3203 25.7103 11.3203 20.5C11.3203 18.8649 11.7547 17.2539 12.5765 15.8412C12.8002 15.4567 12.6622 14.9679 12.2682 14.7494C11.8742 14.5311 11.3736 14.6657 11.1498 15.0504C10.188 16.7037 9.67969 18.5881 9.67969 20.5C9.67969 26.5934 14.758 31.5508 21 31.5508C27.242 31.5508 32.3203 26.5934 32.3203 20.5C32.3203 14.4066 27.242 9.44922 21 9.44922Z" fill="black"/>
<path d="M21 13.293C16.9291 13.293 13.6172 16.526 13.6172 20.5C13.6172 24.474 16.9291 27.707 21 27.707C25.0709 27.707 28.3828 24.474 28.3828 20.5C28.3828 16.526 25.0709 13.293 21 13.293ZM21 26.1055C17.8338 26.1055 15.2578 23.5909 15.2578 20.5C15.2578 17.4091 17.8338 14.8945 21 14.8945C24.1662 14.8945 26.7422 17.4091 26.7422 20.5C26.7422 23.5909 24.1662 26.1055 21 26.1055Z" fill="black"/>
<path d="M31.7666 6.94678C30.0478 6.94678 28.6494 8.31187 28.6494 9.98975C28.6494 11.6676 30.0478 13.0327 31.7666 13.0327C33.4854 13.0327 34.8838 11.6676 34.8838 9.98975C34.8838 8.31187 33.4854 6.94678 31.7666 6.94678ZM31.7666 11.4312C30.9524 11.4312 30.29 10.7845 30.29 9.98975C30.29 9.19497 30.9524 8.54834 31.7666 8.54834C32.5808 8.54834 33.2432 9.19497 33.2432 9.98975C33.2432 10.7845 32.5808 11.4312 31.7666 11.4312Z" fill="black"/>
</svg>
