<svg width="45" height="48" viewBox="0 0 45 48" fill="none" xmlns="http://www.w3.org/2000/svg">
<path d="M34.0542 46.7026H10.946C10.1399 46.7016 9.3671 46.3595 8.7971 45.7515C8.2271 45.1435 7.90645 44.3192 7.90548 43.4593V13.9069H9.1217V43.4593C9.1217 43.9755 9.3139 44.4703 9.65603 44.8353C9.99815 45.2002 10.4622 45.4053 10.946 45.4053H34.0542C34.538 45.4053 35.002 45.2002 35.3442 44.8353C35.6863 44.4703 35.8785 43.9755 35.8785 43.4593V4.54043C35.8785 4.02433 35.6863 3.52936 35.3442 3.16443C35.002 2.7995 34.538 2.59448 34.0542 2.59448H10.946C10.4622 2.59448 9.99815 2.7995 9.65603 3.16443C9.3139 3.52936 9.1217 4.02433 9.1217 4.54043V11.3123H7.90548V4.54043C7.90645 3.68057 8.2271 2.85624 8.7971 2.24824C9.3671 1.64024 10.1399 1.29821 10.946 1.29718H34.0542C34.8602 1.29821 35.633 1.64024 36.203 2.24824C36.773 2.85624 37.0937 3.68057 37.0947 4.54043V43.4593C37.0937 44.3192 36.773 45.1435 36.203 45.7515C35.633 46.3595 34.8602 46.7016 34.0542 46.7026Z" fill="black"/>
<path d="M8.51348 40.2163H30.7582V41.5136H8.51348V40.2163Z" fill="black"/>
<path d="M33.1905 40.2163H36.4865V41.5136H33.1905V40.2163Z" fill="black"/>
<path d="M20.0675 42.8108H24.9323V44.1081H20.0675V42.8108Z" fill="black"/>
<path d="M8.51348 6.48651H36.4865V7.78382H8.51348V6.48651Z" fill="black"/>
<path d="M18.8515 3.89185H26.1487V5.18914H18.8515V3.89185Z" fill="black"/>
</svg>
