<svg width="27" height="33" viewBox="0 0 27 33" fill="none" xmlns="http://www.w3.org/2000/svg">
<path d="M20.4325 32.1081H6.56761C6.08395 32.1074 5.62026 31.8722 5.27826 31.4542C4.93626 31.0362 4.74387 30.4695 4.74329 29.8783V9.56104H5.47302V29.8783C5.47302 30.2332 5.58834 30.5734 5.79362 30.8243C5.99889 31.0752 6.27731 31.2162 6.56761 31.2162H20.4325C20.7228 31.2162 21.0012 31.0752 21.2065 30.8243C21.4118 30.5734 21.5271 30.2332 21.5271 29.8783V3.12158C21.5271 2.76676 21.4118 2.42647 21.2065 2.17558C21.0012 1.92469 20.7228 1.78374 20.4325 1.78374H6.56761C6.27731 1.78374 5.99889 1.92469 5.79362 2.17558C5.58834 2.42647 5.47302 2.76676 5.47302 3.12158V7.77725H4.74329V3.12158C4.74387 2.53043 4.93626 1.9637 5.27826 1.5457C5.62026 1.1277 6.08395 0.892554 6.56761 0.891846H20.4325C20.9161 0.892554 21.3798 1.1277 21.7218 1.5457C22.0638 1.9637 22.2562 2.53043 22.2568 3.12158V29.8783C22.2562 30.4695 22.0638 31.0362 21.7218 31.4542C21.3798 31.8722 20.9161 32.1074 20.4325 32.1081Z" fill="black"/>
<path d="M5.10809 27.6487H18.4549V28.5406H5.10809V27.6487Z" fill="black"/>
<path d="M19.9143 27.6487H21.8919V28.5406H19.9143V27.6487Z" fill="black"/>
<path d="M12.0405 29.4324H14.9594V30.3243H12.0405V29.4324Z" fill="black"/>
<path d="M5.10809 4.45947H21.8919V5.35137H5.10809V4.45947Z" fill="black"/>
<path d="M11.3109 2.67566H15.6892V3.56755H11.3109V2.67566Z" fill="black"/>
</svg>
