<svg width="60" height="56" viewBox="0 0 60 56" fill="none" xmlns="http://www.w3.org/2000/svg">
<path d="M59.9384 28.7028C59.7035 25.9259 58.3661 23.3497 56.1723 21.4487C54.4962 19.9962 52.4343 19.0412 50.2196 18.6654C49.4158 8.2473 40.0781 0 28.7143 0C28.701 0 28.6883 0.00164062 28.6751 0.00185937C28.649 0.00164062 28.6232 0 28.5971 0C26.4933 0 24.5007 0.750202 22.9863 2.11257C22.0543 2.95104 22.0269 4.33584 22.9252 5.20569C23.8237 6.07555 25.3074 6.10104 26.2392 5.26268C26.8756 4.69021 27.7129 4.37499 28.5971 4.37499C30.4709 4.37499 31.9955 5.79785 31.9955 7.54686C31.9955 9.29587 30.4709 10.7187 28.5971 10.7187C28.5563 10.7187 28.5166 10.7224 28.4764 10.7244C25.9961 10.7116 24.4839 10.3138 23.0228 9.92806C21.6444 9.56395 20.2187 9.18748 18.2846 9.18748C18.2055 9.18748 18.1273 9.19142 18.0502 9.19853C17.9731 9.19142 17.895 9.18748 17.8159 9.18748C11.7467 9.18748 6.80916 13.7959 6.80916 19.4604C6.80916 20.8293 7.10096 22.1522 7.63733 23.3677C3.36503 23.8876 0.0542526 27.304 0.0542526 31.4309C0.0542526 35.9966 4.23221 38.9563 8.37854 39.5349C8.40455 39.5395 8.43947 39.5457 8.48107 39.553C8.48295 39.5628 8.48354 39.5726 8.48565 39.5824L11.6044 54.2386C11.8222 55.2625 12.7848 56 13.9032 56C13.9049 56 13.9032 56 13.9049 56H46.4607H46.4623C47.5849 56 48.55 55.2569 48.7634 54.2282L51.7574 39.7908C51.8023 39.5744 51.8104 39.3596 51.7875 39.1511C52.3076 39.0159 52.8199 38.875 53.3227 38.7276C54.5576 38.3656 55.2442 37.1378 54.8564 35.9852C54.4684 34.8325 53.1529 34.1919 51.9181 34.5537C45.4961 36.4364 38.0686 37.0338 31.2248 37.0335C19.4301 37.0333 9.37287 35.2585 9.21502 35.2301C9.17799 35.2234 9.1406 35.2175 9.1031 35.2124C6.93584 34.9214 4.74174 33.5291 4.74174 31.431C4.74174 29.3583 6.54854 27.6719 8.76935 27.6719C10.339 27.6719 11.5679 28.1909 13.4284 28.9764C17.1497 30.5475 22.773 32.9218 36.0971 32.9218C37.3915 32.9218 38.4408 31.9425 38.4408 30.7343C38.4408 29.5262 37.3915 28.5468 36.0971 28.5468C25.0938 28.5468 20.0356 26.9053 16.5472 25.485C16.319 25.2895 16.0459 25.1328 15.7347 25.0316C13.1999 24.2069 11.4967 21.968 11.4967 19.4604C11.4967 16.2083 14.3314 13.5625 17.8159 13.5625C17.895 13.5625 17.9731 13.5585 18.0502 13.5514C18.1273 13.5585 18.2055 13.5625 18.2846 13.5625C19.5683 13.5625 20.5297 13.8163 21.7468 14.1378C23.3712 14.5668 25.3931 15.1006 28.5971 15.1006C28.6817 15.1006 28.7651 15.0959 28.8474 15.0878C33.1904 14.9637 36.683 11.6299 36.683 7.54686C36.683 7.07939 36.6349 6.62232 36.5473 6.17814C41.4445 8.58373 44.9282 13.1699 45.5046 18.5445C43.3789 18.6594 41.464 18.9219 39.5971 19.1779C35.5791 19.7288 31.4244 20.2984 24.8409 19.3832C23.5603 19.2047 22.368 20.0296 22.1773 21.2245C21.9867 22.4194 22.87 23.5324 24.1503 23.7104C26.9539 24.1001 29.3456 24.2476 31.4766 24.2476C34.8708 24.2476 37.6027 23.8731 40.2782 23.5064C42.7057 23.1737 44.9985 22.8592 47.6986 22.8592C47.7632 22.8592 47.8266 22.855 47.8898 22.8503C47.953 22.8551 48.0164 22.8592 48.0809 22.8592C51.8161 22.8592 54.972 25.5772 55.2654 29.047C55.3622 30.1928 56.3884 31.0624 57.5993 31.0624C57.6611 31.0624 57.7235 31.0601 57.7862 31.0556C59.0767 30.9606 60.0402 29.9072 59.9384 28.7028ZM42.2365 40.8586C43.8468 40.6816 45.4009 40.4629 46.8975 40.2026L44.5288 51.6249H40.9445L42.2365 40.8586ZM32.5815 41.414C34.2576 41.3955 35.8887 41.3418 37.4725 41.2521L36.2277 51.6249H32.5815V41.414ZM23.6993 41.2025C25.1252 41.2822 26.5226 41.3394 27.894 41.3757V51.6249H24.4821L23.2282 41.1752C23.3845 41.1845 23.5414 41.1936 23.6993 41.2025ZM18.4684 40.8175L19.7653 51.6249H15.8273L13.4116 40.2718C14.8559 40.4528 16.5618 40.6441 18.4684 40.8175Z" fill="black"/>
<path d="M46.2366 27.705L44.2444 28.0332C42.9696 28.2432 42.1186 29.3778 42.3436 30.5675C42.5442 31.6287 43.5331 32.3752 44.6489 32.3752C44.784 32.3752 44.9213 32.3642 45.059 32.3415L47.0512 32.0134C48.3259 31.8034 49.1769 30.6688 48.9519 29.4791C48.7272 28.2893 47.5106 27.4956 46.2366 27.705Z" fill="black"/>
</svg>
