<svg width="130" height="81" viewBox="0 0 130 81" fill="none" xmlns="http://www.w3.org/2000/svg">
<path d="M87.8938 23.4841C87.7148 21.2121 86.6916 19.1043 85.0139 17.5489C83.7322 16.3605 82.1554 15.5792 80.4624 15.2717C79.8475 6.74779 72.7068 0 64.0168 0C64.0066 0 63.9969 0.00134233 63.9868 0.0015213C63.9669 0.00134233 63.9471 0 63.9272 0C62.3184 0 60.7946 0.613802 59.6366 1.72847C58.9239 2.41449 58.9029 3.54751 59.5899 4.2592C60.2769 4.9709 61.4115 4.99176 62.1241 4.30583C62.6107 3.83744 63.251 3.57954 63.9272 3.57954C65.3601 3.57954 66.526 4.7437 66.526 6.1747C66.526 7.60571 65.3601 8.76985 63.9272 8.76985C63.896 8.76985 63.8656 8.77287 63.8349 8.77451C61.9382 8.76404 60.7818 8.43856 59.6645 8.12296C58.6104 7.82505 57.5202 7.51703 56.0412 7.51703C55.9807 7.51703 55.9209 7.52025 55.8619 7.52607C55.803 7.52025 55.7432 7.51703 55.6827 7.51703C51.0416 7.51703 47.2659 11.2876 47.2659 15.9221C47.2659 17.0422 47.489 18.1245 47.8991 19.119C44.6321 19.5444 42.1003 22.3396 42.1003 25.7162C42.1003 29.4518 45.2952 31.8733 48.4659 32.3467C48.4859 32.3505 48.5126 32.3556 48.5444 32.3615C48.5457 32.3696 48.5462 32.3776 48.5478 32.3856L50.9328 44.377C51.0993 45.2148 51.8354 45.8182 52.6907 45.8182C52.692 45.8182 52.6907 45.8182 52.692 45.8182H77.5878H77.5886C78.4473 45.8182 79.1853 45.2102 79.3482 44.3685L81.6377 32.5561C81.6721 32.3791 81.6782 32.2033 81.6614 32.0327C82.0591 31.9221 82.4506 31.8068 82.8352 31.6862C83.7796 31.39 84.3042 30.3855 84.0075 29.4424C83.7108 28.4993 82.7052 27.9752 81.7608 28.2712C76.8499 29.8116 71.1701 30.3004 65.9366 30.3001C56.9171 30.3 49.2263 28.8479 49.1056 28.8246C49.0773 28.8191 49.0487 28.8143 49.02 28.8101C47.3627 28.5721 45.6848 27.4329 45.6848 25.7163C45.6848 24.0204 47.0665 22.6406 48.7648 22.6406C49.9651 22.6406 50.9049 23.0653 52.3276 23.708C55.1733 24.9934 59.4735 26.936 69.6625 26.936C70.6523 26.936 71.4547 26.1348 71.4547 25.1462C71.4547 24.1578 70.6523 23.3565 69.6625 23.3565C61.2482 23.3565 57.3802 22.0134 54.7126 20.8514C54.5381 20.6914 54.3292 20.5632 54.0912 20.4804C52.1529 19.8056 50.8504 17.9738 50.8504 15.9221C50.8504 13.2613 53.0181 11.0966 55.6827 11.0966C55.7432 11.0966 55.803 11.0933 55.8619 11.0875C55.9209 11.0933 55.9807 11.0966 56.0412 11.0966C57.0228 11.0966 57.758 11.3042 58.6887 11.5673C59.9309 11.9183 61.4771 12.355 63.9272 12.355C63.9919 12.355 64.0557 12.3512 64.1186 12.3446C67.4397 12.243 70.1105 9.51537 70.1105 6.1747C70.1105 5.79223 70.0737 5.41826 70.0068 5.05484C73.7517 7.02305 76.4157 10.7754 76.8568 15.1728C75.2309 15.2668 73.7666 15.4816 72.339 15.691C69.2664 16.1417 66.0892 16.6078 61.0548 15.859C60.0755 15.7129 59.1638 16.3879 59.0179 17.3655C58.8722 18.3431 59.5476 19.2538 60.5267 19.3994C62.6706 19.7183 64.4996 19.8389 66.1292 19.8389C68.7247 19.8389 70.8138 19.5325 72.8598 19.2325C74.7161 18.9603 76.4694 18.703 78.5345 18.703C78.5835 18.703 78.6324 18.6995 78.6806 18.6957C78.7288 18.6996 78.7769 18.703 78.8266 18.703C81.6828 18.703 84.0962 20.9268 84.3203 23.7657C84.3945 24.7032 85.1791 25.4147 86.1051 25.4147C86.1525 25.4147 86.2007 25.4128 86.2481 25.4091C87.2354 25.3314 87.9718 24.4695 87.8938 23.4841ZM74.3573 33.4298C75.5887 33.2849 76.7772 33.106 77.922 32.893L76.1103 42.2386H73.3693L74.3573 33.4298ZM66.9741 33.8842C68.2558 33.869 69.5031 33.8251 70.7143 33.7517L69.7624 42.2386H66.9741V33.8842ZM60.1818 33.7111C61.2722 33.7763 62.3408 33.8231 63.3895 33.8528V42.2386H60.7804L59.8216 33.6888C59.9411 33.6964 60.0611 33.7039 60.1818 33.7111ZM56.1817 33.3961L57.1735 42.2386H54.162L52.3147 32.9497C53.4192 33.0977 54.7237 33.2543 56.1817 33.3961Z" fill="black"/>
<path d="M77.4165 22.6677L75.8928 22.9363C74.9179 23.1081 74.2671 24.0364 74.4392 25.0098C74.5926 25.878 75.3488 26.4888 76.2021 26.4888C76.3054 26.4888 76.4104 26.4798 76.5157 26.4612L78.039 26.1928C79.014 26.021 79.6647 25.0927 79.4927 24.1193C79.3206 23.1458 78.3907 22.4964 77.4165 22.6677Z" fill="black"/>
<path d="M25.0473 70.3146C25.0473 70.8448 25.084 71.2277 25.1574 71.4633C25.2492 71.6989 25.4144 71.856 25.653 71.9346C25.8916 72.0131 26.277 72.0524 26.8092 72.0524H28.461C29.764 72.0524 30.8652 71.6695 31.7645 70.9037C32.6638 70.1182 33.2603 69.0677 33.5539 67.752C33.5723 67.6931 33.6273 67.6735 33.7191 67.6931C33.8109 67.6931 33.8567 67.7226 33.8567 67.7815C33.6916 69.6273 33.609 71.1589 33.609 72.3764C33.609 72.5335 33.5814 72.6513 33.5264 72.7298C33.4713 72.7888 33.3612 72.8182 33.196 72.8182H20.3123C20.2756 72.8182 20.2572 72.7593 20.2572 72.6415C20.2572 72.5237 20.2756 72.4648 20.3123 72.4648C20.9363 72.4648 21.3859 72.4157 21.6612 72.3175C21.9548 72.2193 22.1476 72.0328 22.2393 71.7578C22.3494 71.4633 22.4045 71.0215 22.4045 70.4324V56.7949C22.4045 56.2058 22.3494 55.7738 22.2393 55.4989C22.1476 55.224 21.9548 55.0375 21.6612 54.9393C21.3676 54.8215 20.9179 54.7626 20.3123 54.7626C20.2756 54.7626 20.2572 54.7037 20.2572 54.5858C20.2572 54.468 20.2756 54.4091 20.3123 54.4091L21.7163 54.4386C22.5238 54.4778 23.1845 54.4975 23.6984 54.4975C24.249 54.4975 24.928 54.4778 25.7356 54.4386L27.112 54.4091C27.1671 54.4091 27.1946 54.468 27.1946 54.5858C27.1946 54.7037 27.1671 54.7626 27.112 54.7626C26.5064 54.7626 26.0567 54.8215 25.7631 54.9393C25.4878 55.0375 25.2951 55.2338 25.185 55.5284C25.0932 55.8033 25.0473 56.2353 25.0473 56.8244V70.3146ZM45.8324 71.2277C45.9058 71.2277 45.9517 71.2768 45.9701 71.3749C45.9884 71.4535 45.9609 71.5124 45.8875 71.5517L43.0519 72.9949C42.9785 73.0342 42.8959 73.0538 42.8042 73.0538C42.5289 73.0538 42.2628 72.8869 42.0058 72.5531C41.7672 72.1997 41.6112 71.7382 41.5378 71.1688L40.2715 72.1113C39.831 72.4451 39.4272 72.6808 39.0602 72.8182C38.7115 72.9557 38.3169 73.0244 37.8764 73.0244C37.1239 73.0244 36.5458 72.8378 36.1421 72.4648C35.7566 72.072 35.5639 71.5615 35.5639 70.9331C35.5639 70.4029 35.6924 69.9709 35.9494 69.6371C36.2246 69.3033 36.5642 69.0382 36.9679 68.8418C37.3901 68.6258 38.0049 68.3608 38.8124 68.0466L41.4828 66.9862V65.2189C41.4828 64.0015 41.3635 63.1178 41.1249 62.568C40.9046 61.9986 40.5468 61.7138 40.0512 61.7138C39.4456 61.7138 39.0051 61.9593 38.7298 62.4502C38.4729 62.9215 38.3169 63.4517 38.2618 64.0408C38.1517 65.0422 37.6837 65.5429 36.8578 65.5429C36.4541 65.5429 36.1512 65.4448 35.9494 65.2484C35.7658 65.052 35.6741 64.8066 35.6741 64.512C35.6741 63.9622 35.9769 63.432 36.5825 62.9215C37.2065 62.3913 37.9498 61.9691 38.8124 61.6549C39.6934 61.3211 40.4642 61.1542 41.1249 61.1542C41.9141 61.1542 42.5381 61.4193 42.9969 61.9495C43.4741 62.4797 43.7126 63.2749 43.7126 64.3353V69.6371C43.7126 70.2458 43.8044 70.7073 43.9879 71.0215C44.1715 71.3357 44.4376 71.4928 44.7863 71.4928C45.0616 71.4928 45.3919 71.4044 45.7774 71.2277H45.8324ZM41.4828 70.6975V70.4029V67.4869L39.831 68.2233C39.3538 68.4197 38.9592 68.6553 38.6472 68.9302C38.3536 69.1855 38.2068 69.5586 38.2068 70.0495C38.2068 70.5208 38.3444 70.9037 38.6197 71.1982C38.9134 71.4731 39.2621 71.6106 39.6658 71.6106C39.9962 71.6106 40.3449 71.4928 40.7119 71.2571L41.4828 70.6975ZM58.1462 55.0277C57.0267 55.0277 56.0999 55.4007 55.3658 56.1469C54.65 56.8735 54.0994 57.9829 53.714 59.4753C53.714 59.5146 53.6589 59.5342 53.5488 59.5342C53.4571 59.5342 53.4112 59.5047 53.4112 59.4458C53.4846 58.68 53.5672 57.6982 53.6589 56.5004C53.7507 55.2829 53.7966 54.3698 53.7966 53.7611C53.7966 53.6629 53.8425 53.6138 53.9342 53.6138C54.0444 53.6138 54.0994 53.6629 54.0994 53.7611C54.0994 54.1931 54.6133 54.4091 55.6411 54.4091C57.2194 54.468 59.0639 54.4975 61.1745 54.4975C62.2573 54.4975 63.4044 54.4778 64.6157 54.4386L66.4877 54.4091C67.1851 54.4091 67.6898 54.36 68.0018 54.2618C68.3321 54.1637 68.5432 53.9673 68.635 53.6727C68.6533 53.5942 68.7084 53.5549 68.8001 53.5549C68.8919 53.5549 68.9378 53.5942 68.9378 53.6727C68.8827 54.2815 68.8277 55.2044 68.7726 56.4415C68.7175 57.6786 68.69 58.68 68.69 59.4458C68.69 59.5047 68.6349 59.5342 68.5248 59.5342C68.4331 59.5342 68.378 59.5047 68.3597 59.4458C68.1761 57.9338 67.7448 56.8244 67.0658 56.1175C66.3867 55.3909 65.4691 55.0277 64.3128 55.0277C63.7989 55.0277 63.4135 55.0767 63.1566 55.1749C62.918 55.2731 62.7528 55.4498 62.6611 55.7051C62.5877 55.9407 62.5509 56.3237 62.5509 56.8538V70.4324C62.5509 71.0411 62.606 71.4829 62.7161 71.7578C62.8262 72.0328 63.0465 72.2193 63.3768 72.3175C63.7072 72.4157 64.2302 72.4648 64.946 72.4648C65.0011 72.4648 65.0286 72.5237 65.0286 72.6415C65.0286 72.7593 65.0011 72.8182 64.946 72.8182C64.3037 72.8182 63.7989 72.8084 63.4319 72.7888L61.1745 72.7593L59.0272 72.7888C58.6418 72.8084 58.1095 72.8182 57.4305 72.8182C57.3938 72.8182 57.3754 72.7593 57.3754 72.6415C57.3754 72.5237 57.3938 72.4648 57.4305 72.4648C58.1462 72.4648 58.6693 72.4157 58.9997 72.3175C59.3484 72.2193 59.5778 72.0328 59.6879 71.7578C59.8164 71.4633 59.8806 71.0215 59.8806 70.4324V56.7949C59.8806 56.2844 59.8347 55.9113 59.7429 55.6757C59.6512 55.44 59.486 55.2731 59.2474 55.1749C59.0088 55.0767 58.6418 55.0277 58.1462 55.0277ZM79.5187 71.2277C79.5921 71.2277 79.638 71.2768 79.6563 71.3749C79.6747 71.4535 79.6472 71.5124 79.5738 71.5517L76.7382 72.9949C76.6648 73.0342 76.5822 73.0538 76.4905 73.0538C76.2148 73.0538 75.9487 72.8869 75.6917 72.5531C75.4531 72.1997 75.2971 71.7382 75.2237 71.1688L73.9574 72.1113C73.5169 72.4451 73.1131 72.6808 72.7461 72.8182C72.3974 72.9557 72.0028 73.0244 71.5623 73.0244C70.8098 73.0244 70.2317 72.8378 69.828 72.4648C69.4426 72.072 69.2499 71.5615 69.2499 70.9331C69.2499 70.4029 69.3783 69.9709 69.6353 69.6371C69.9106 69.3033 70.2501 69.0382 70.6539 68.8418C71.076 68.6258 71.6908 68.3608 72.4983 68.0466L75.1687 66.9862V65.2189C75.1687 64.0015 75.0494 63.1178 74.8108 62.568C74.5906 61.9986 74.2327 61.7138 73.7371 61.7138C73.1315 61.7138 72.691 61.9593 72.4157 62.4502C72.1588 62.9215 72.0028 63.4517 71.9477 64.0408C71.8376 65.0422 71.3696 65.5429 70.5437 65.5429C70.14 65.5429 69.8371 65.4448 69.6353 65.2484C69.4517 65.052 69.36 64.8066 69.36 64.512C69.36 63.9622 69.6628 63.432 70.2684 62.9215C70.8924 62.3913 71.6357 61.9691 72.4983 61.6549C73.3793 61.3211 74.1501 61.1542 74.8108 61.1542C75.6 61.1542 76.224 61.4193 76.6832 61.9495C77.1603 62.4797 77.3989 63.2749 77.3989 64.3353V69.6371C77.3989 70.2458 77.4907 70.7073 77.6742 71.0215C77.8578 71.3357 78.1239 71.4928 78.4726 71.4928C78.7479 71.4928 79.0782 71.4044 79.4636 71.2277H79.5187ZM75.1687 70.6975V70.4029V67.4869L73.5169 68.2233C73.0397 68.4197 72.6451 68.6553 72.3331 68.9302C72.0395 69.1855 71.8927 69.5586 71.8927 70.0495C71.8927 70.5208 72.0303 70.9037 72.3056 71.1982C72.5993 71.4731 72.948 71.6106 73.3517 71.6106C73.6821 71.6106 74.0308 71.4928 74.3978 71.2571L75.1687 70.6975ZM87.5825 61.1542C88.0046 61.1542 88.4084 61.3015 88.7938 61.596C89.1792 61.8906 89.3719 62.244 89.3719 62.6564C89.3719 63.0295 89.2618 63.3338 89.0416 63.5695C88.8397 63.8051 88.5552 63.9229 88.1882 63.9229C87.9496 63.9229 87.7477 63.8738 87.5825 63.7757C87.4357 63.6578 87.2797 63.5008 87.1145 63.3044C86.9494 63.1277 86.8025 63 86.6741 62.9215C86.5456 62.8233 86.3896 62.7742 86.2061 62.7742C86.0042 62.7742 85.7839 62.8626 85.5454 63.0393C85.3251 63.1964 84.9764 63.54 84.4992 64.0702V70.4324C84.4992 70.9822 84.5726 71.4044 84.7195 71.6989C84.8663 71.9738 85.1141 72.1702 85.4628 72.288C85.8115 72.4058 86.3254 72.4648 87.0044 72.4648C87.0778 72.4648 87.1145 72.5237 87.1145 72.6415C87.1145 72.7593 87.0778 72.8182 87.0044 72.8182C86.3988 72.8182 85.9124 72.8084 85.5454 72.7888L83.3705 72.7593L81.7738 72.7888C81.5169 72.8084 81.159 72.8182 80.7002 72.8182C80.6451 72.8182 80.6176 72.7593 80.6176 72.6415C80.6176 72.5237 80.6451 72.4648 80.7002 72.4648C81.3242 72.4648 81.7371 72.3273 81.939 72.0524C82.1409 71.7775 82.2418 71.2375 82.2418 70.4324V64.8066C82.2418 64.1782 82.1684 63.7167 82.0216 63.4222C81.8931 63.1277 81.6729 62.9804 81.3609 62.9804C81.0856 62.9804 80.6268 63.1277 79.9844 63.4222H79.9569C79.8835 63.4222 79.8284 63.3731 79.7917 63.2749C79.755 63.1767 79.7642 63.1178 79.8192 63.0982L83.4256 61.2131C83.5357 61.1738 83.5999 61.1542 83.6183 61.1542C83.8018 61.1542 83.9853 61.3702 84.1689 61.8022C84.3524 62.2146 84.4625 62.7644 84.4992 63.4517C85.215 62.5877 85.8115 61.9888 86.2886 61.6549C86.7658 61.3211 87.1971 61.1542 87.5825 61.1542ZM98.6776 70.9331C98.7327 70.9331 98.7786 70.9724 98.8153 71.0509C98.8703 71.1295 98.8703 71.1884 98.8153 71.2277C98.1362 71.9149 97.4939 72.4157 96.8882 72.7298C96.2826 73.0244 95.6402 73.1717 94.9612 73.1717C94.172 73.1717 93.5021 72.9753 92.9515 72.5826C92.4193 72.1702 92.1532 71.4927 92.1532 70.5502V63.8935C92.1532 63.2455 92.0522 62.8135 91.8503 62.5975C91.6668 62.3815 91.2998 62.2735 90.7492 62.2735C90.7308 62.2735 90.7033 62.2538 90.6666 62.2146C90.6482 62.1557 90.6391 62.0967 90.6391 62.0378C90.6391 61.9789 90.6482 61.9298 90.6666 61.8906C90.7033 61.8317 90.7308 61.8022 90.7492 61.8022C92.4743 61.7237 93.5572 60.9284 93.9976 59.4164C94.0343 59.3378 94.1078 59.2986 94.2179 59.2986C94.3464 59.2986 94.4106 59.3378 94.4106 59.4164V61.7433C95.2732 61.7237 96.4936 61.6255 98.072 61.4487C98.1087 61.4487 98.1454 61.5273 98.1821 61.6844C98.2372 61.8218 98.2647 61.9789 98.2647 62.1557C98.2647 62.3324 98.228 62.5091 98.1546 62.6858C98.0995 62.8626 98.0353 62.9411 97.9619 62.9215C96.9341 62.6662 95.7504 62.5091 94.4106 62.4502V69.5782C94.4106 70.344 94.5849 70.9135 94.9336 71.2866C95.3007 71.64 95.8054 71.8168 96.4478 71.8168C97.2186 71.8168 97.9435 71.532 98.6226 70.9626L98.6776 70.9331ZM109.576 70.9626C109.613 70.9626 109.65 71.0018 109.686 71.0804C109.741 71.1589 109.751 71.2178 109.714 71.2571C109.035 71.9248 108.356 72.4157 107.677 72.7298C106.998 73.0244 106.264 73.1717 105.474 73.1717C104.355 73.1717 103.382 72.9066 102.556 72.3764C101.749 71.8462 101.125 71.1491 100.684 70.2851C100.262 69.4211 100.051 68.4884 100.051 67.4869C100.051 66.3284 100.317 65.268 100.849 64.3058C101.382 63.3437 102.107 62.5877 103.024 62.0378C103.96 61.4684 104.997 61.1837 106.135 61.1837C107.236 61.1837 108.09 61.4684 108.695 62.0378C109.301 62.6073 109.604 63.4517 109.604 64.5709C109.604 65.1404 109.494 65.4251 109.273 65.4251L102.556 65.4546C102.538 65.6313 102.529 65.8964 102.529 66.2498C102.529 67.9778 102.896 69.3524 103.63 70.3735C104.382 71.3749 105.447 71.8757 106.823 71.8757C107.337 71.8757 107.768 71.8168 108.117 71.6989C108.466 71.5615 108.934 71.3258 109.521 70.992L109.576 70.9626ZM105.144 61.7728C104.465 61.7728 103.905 62.0575 103.465 62.6269C103.043 63.1767 102.758 63.9426 102.611 64.9244L107.016 64.836C106.979 62.7938 106.355 61.7728 105.144 61.7728Z" fill="black"/>
</svg>
